<?xml version="1.0" encoding="UTF-8"?>
<svg id="Layer_2" xmlns="http://www.w3.org/2000/svg" viewBox="0 0 688.48 632.2">
  <defs>
    <style>
      .cls-1 {
        fill: #7292cc;
      }

      .cls-2 {
        fill: #ad6359;
      }

      .cls-3 {
        fill: #ff99ba;
      }

      .cls-4, .cls-5 {
        fill: #263238;
      }

      .cls-6 {
        fill: #263238;
      }

      .cls-7 {
        fill: #37474f;
      }

      .cls-8 {
        fill: #fff;
      }

      .cls-5 {
        opacity: .2;
      }

      .cls-9 {
        fill: #ffc727;
      }

      .cls-10 {
        fill: #455a64;
      }

      .cls-11 {
        fill: #c7c7c7;
      }

      .cls-12 {
        fill: #dae3f7;
      }

      .cls-13 {
        fill: #eb9481;
      }

      .cls-14 {
        fill: #3a4d83;
      }

      .cls-15 {
        fill: #ebebeb;
      }

      .cls-16 {
        fill: #f7b1a6;
      }

      .cls-17 {
        opacity: .1;
      }

      .cls-18 {
        fill: #c23d23;
      }
    </style>
  </defs>
  <g id="Devices">
    <g>
      <path class="cls-12" d="M632.2,316.1c-182.43,162.77-141.52,316.1-316.1,316.1S0,490.68,0,316.1,141.52,0,316.1,0s446.37,199.87,316.1,316.1Z"/>
      <g id="ZZtZDI">
        <g>
          <path class="cls-14" d="M373.73,273.2c-.59.59-1.32.91-2.1,1.1-.5.13-1.01.2-1.52.29h-1.73c-.71-.11-1.43-.2-2.13-.34-2.64-.52-5.01-1.66-7.23-3.14-5.78-3.86-10.52-8.72-14.15-14.66-1.19-1.95-2.04-4.05-2.44-6.32-.1-.59-.18-1.18-.28-1.77v-1.73c.14-.67.26-1.34.44-2,.17-.61.48-1.15.95-1.63.08.07.16.14.24.21,2.76,2.76,5.51,5.52,8.28,8.27.2.2.23.36.16.63-.39,1.47-.13,2.81.89,3.97,2.36,2.68,4.87,5.2,7.55,7.56,1.17,1.03,2.52,1.28,4.01.89.2-.05.34-.09.51.09,2.82,2.83,5.65,5.66,8.47,8.48.03.03.04.06.09.11Z"/>
          <path class="cls-14" d="M379.14,267.01v.58c-.27.35-.51.72-.81,1.03-.85.88-1.73,1.74-2.6,2.61-.09.09-.19.18-.26.25-2.85-2.85-5.68-5.68-8.51-8.51,1.11-1.1,2.23-2.23,3.38-3.32.53-.5,1.27-.44,1.82.1.64.62,1.26,1.26,1.89,1.89,1.48,1.48,2.97,2.96,4.44,4.45.26.27.44.61.66.92Z"/>
          <path class="cls-14" d="M356.84,246.68c-1.05,1.02-2.13,2.01-3.17,3-2.73-2.72-5.56-5.55-8.45-8.44.19-.17.4-.34.6-.54.78-.77,1.54-1.56,2.33-2.32.31-.29.67-.52,1.01-.78h.58c.31.22.65.4.92.66,2.07,2.05,4.12,4.11,6.18,6.17.78.78.79,1.48,0,2.24Z"/>
        </g>
      </g>
      <g>
        <polygon class="cls-1" points="57.06 234.62 172.8 234.62 172.8 161.2 57.06 161.2 57.06 161.2 57.06 234.62 57.06 234.62"/>
        <polygon class="cls-1" points="194.45 234.62 172.8 234.62 172.8 212.08 194.45 234.62"/>
      </g>
      <g>
        <rect class="cls-8" x="70.46" y="173.9" width="88.94" height="1.4"/>
        <rect class="cls-8" x="70.46" y="181.43" width="45.97" height="1.4"/>
        <rect class="cls-8" x="70.46" y="196.5" width="71.92" height="1.4"/>
        <rect class="cls-8" x="70.46" y="204.03" width="88.94" height="1.4"/>
        <rect class="cls-8" x="70.46" y="211.57" width="88.94" height="1.4"/>
        <rect class="cls-8" x="70.46" y="219.1" width="31.6" height="1.4"/>
      </g>
      <g>
        <rect class="cls-1" x="565.82" y="263.95" width="115.73" height="64.75"/>
        <polygon class="cls-1" points="544.16 328.7 565.82 328.7 565.82 306.15 544.16 328.7"/>
      </g>
      <g>
        <rect class="cls-8" x="579.48" y="297.76" width="77.43" height="1.4"/>
        <rect class="cls-8" x="579.48" y="305.29" width="61.51" height="1.4"/>
        <rect class="cls-8" x="579.48" y="282.69" width="66.15" height="1.4"/>
        <rect class="cls-8" x="579.48" y="275.16" width="86.37" height="1.4"/>
        <rect class="cls-8" x="579.48" y="312.83" width="67.89" height="1.4"/>
      </g>
      <path class="cls-6" d="M50.13,464.67c204.49-.61,433.87-.62,638.35,0-204.49.62-433.87.61-638.35,0h0Z"/>
      <polygon class="cls-14" points="360.65 464.64 483.31 464.64 458.85 322.37 367.13 322.37 360.65 464.64"/>
      <polygon class="cls-18" points="360.65 464.64 371.4 464.64 377.44 322.37 367.13 322.37 360.65 464.64"/>
      <path class="cls-2" d="M467.23,350.26c13.88,30.97,47.42,82.45,62.43,69.7,22.45-19.06,37.63-61.22,43.65-78.27,3.37-9.55-45.27-25.54-48.26-16.87-4.24,12.33-10.89,38.07-14.74,41.72-2.03,1.92-17.94-20.45-30.01-31.06-17.4-15.29-17.5,4.88-13.07,14.77Z"/>
      <path class="cls-16" d="M585.46,327.34c-4.33,9.75-21,26.22-26.54,28.64-5.55,2.43-34.8-24.03-34.19-30.22.62-6.18,18.07-38.81,27.74-43.81,9.67-5,37.48,35.28,32.99,45.38Z"/>
      <path class="cls-16" d="M527.02,318.92s.7-13.86-2.8-25.57c-2.94-9.85-8.42-24.14-3.18-25.92,10.75-3.65,24.4,32,24.4,32,0,0,3.5,16.7-6.84,21.26-6.48,2.86-11.59-1.76-11.59-1.76Z"/>
      <path class="cls-16" d="M539.14,292.64c.71,5.61,6.91,1.56,6.91,1.56,0,0-7.53,7.97-4.56,13.47,2.87,5.29,10.19.14,10.72-.22-.39.43-7.12,7.93-3.57,13.15,3.69,5.42,10.16-1.01,10.57-1.43-.25.52-3.39,7.43.21,10.78,6.19,5.76,14.71-11.69,21.27-13.64,0,0,4.57,10.74,4.77,11.02,0,0,8.45-16.43,5.32-25.13-1.65-4.59-6.25-3.96-6.25-3.96,0,0,3.31-5,.65-9.2-1.37-2.15-6.04-1.87-6.04-1.87,0,0,2.48-4.11-.12-7.7-2.07-2.87-6.42-2.14-6.42-2.14,0,0,.55-5.06-2.51-7.3-6.17-4.54-32.45,10.58-30.95,22.58Z"/>
      <g>
        <path class="cls-4" d="M571.9,277.36c.09-.04.05-.18-.05-.15-9.86,2.86-19.81,9.03-26.15,17.17-.21.27.14.72.42.47,8.14-7.15,15.94-12.84,25.78-17.49Z"/>
        <path class="cls-4" d="M579.25,287.06c.11-.05.03-.23-.1-.19-10.14,3-21.16,10.25-27.36,20.51-.21.35-.05.88.22.49,4.64-6.5,18.35-16.67,27.24-20.81Z"/>
        <path class="cls-4" d="M559.03,320.04c6.33-9.6,15.1-16.21,25.08-21.7.13-.07.02-.25-.11-.22-5.62,1.35-11.61,5.52-16.01,9.15-4.21,3.48-7.31,7.47-9.3,12.54-.08.2.2.43.34.22Z"/>
      </g>
      <path class="cls-4" d="M545.86,294.19c-.25.32.49.33.25.66-1.01,1.38-6.35,10.23-3.9,12.98,1.97,2.2,6.29,1.09,7.79,0l3.76-2.72-2.58,3.86c-1.13,1.68-2.08,3.62-2.6,5.57-.52,1.94-.52,4.02.51,5.52,1.04,1.6,2.77,2.33,4.55,1.75,1.79-.5,3.53-1.83,4.89-3.25l3.8-3.96-2.28,4.97c-.62,1.35-1.11,2.86-1.36,4.34-.24,1.47-.25,3.01.32,4.22.55,1.2,1.77,2.1,3.03,2.09,1.33,0,2.74-.76,4-1.62,2.56-1.78,4.78-4.13,7.09-6.35,1.15-1.12,2.3-2.25,3.51-3.33,1.21-1.04,2.48-2.15,4.05-2.61-1.5.61-2.61,1.82-3.74,2.93-1.11,1.15-2.17,2.36-3.23,3.56-2.12,2.41-4.29,4.82-6.9,6.87-1.33.97-2.81,1.97-4.74,2.09-2,.11-3.79-1.22-4.59-2.9-.82-1.72-.78-3.56-.54-5.23.27-1.7.75-3.27,1.45-4.85l1.52,1c-1.59,1.69-3.36,3.15-5.74,3.9-1.17.36-2.57.38-3.8-.14-1.23-.52-2.16-1.41-2.84-2.46-1.4-2.18-1.26-4.83-.64-6.99.64-2.22,1.65-4.2,2.95-6.08l1.17,1.14c-1.94,1.31-6.64,3.08-10.12.05-3.95-4.63,3.5-13.49,4.98-15.02Z"/>
      <path class="cls-4" d="M546.05,294.2c-1.15.43-2.32.75-3.38.79-1.06.05-1.95-.37-2.42-1.11-.49-.73-.58-1.86-.55-2.99.06-1.14.18-2.33.36-3.55-.75,1-1.3,2.14-1.59,3.39-.27,1.23-.37,2.68.45,4.02.45.63,1.06,1.12,1.78,1.38.72.24,1.47.24,2.13.08,1.33-.3,2.4-1.08,3.21-2.01Z"/>
      <path class="cls-9" d="M522.09,325.77l50.64,35.26s-30.25,62.67-48.94,62.5c-18.69-.17-45.69-47.11-55.04-67.4-9.35-20.29-3.75-37.48,15.08-18.98,18.95,18.62,25.58,26.1,26.2,25.85,1.19-.49,12.07-37.24,12.07-37.24Z"/>
      <path class="cls-18" d="M572.73,361.03s-20.97,43.46-38.79,57.9c-3.57,2.9-7.02,4.63-10.15,4.6-18.69-.16-45.7-47.11-55.05-67.39-5.79-12.56-5.85-23.94-.58-26.38,3.24-1.51,8.5.35,15.67,7.4,18.94,18.62,25.58,26.1,26.19,25.84,1.18-.48,12.07-37.23,12.07-37.23l50.64,35.26Z"/>
      <path class="cls-8" d="M541.39,411.53c-.62.72-1.25,1.42-1.88,2.1-5.7,3.53-12.07,5.98-18.76,6.87-1.84.21-3.69.27-5.54.22-.38-.23-.76-.47-1.15-.72,2.21.13,4.42.08,6.62-.17,2.62-.31,5.22-.86,7.71-1.78l1.89-.62,1.83-.77c.61-.26,1.24-.48,1.83-.78l1.77-.9c1.97-1.02,3.86-2.17,5.68-3.45ZM502.97,356.32c-5.77,2.58-11.06,6.27-15.57,10.67-2.96,2.89-5.63,6.01-8.11,9.29.12.22.25.45.39.67,2.52-3.34,5.22-6.51,8.23-9.43,3.8-3.71,8.11-6.89,12.81-9.33l1.77-.9c.33-.17.67-.31,1.01-.44-.17-.17-.34-.35-.53-.53ZM546.71,359.51c-4.83-2.3-9.84-4.27-15.05-5.57-.54-.13-1.08-.26-1.63-.37-.35-.08-.71-.16-1.06-.22-4.37-.87-8.86-1.19-13.3-.68-.65.09-1.29.19-1.94.31-.07.23-.15.47-.22.69.74-.13,1.49-.24,2.24-.33,4.11-.47,8.28-.23,12.36.51.36.06.73.13,1.09.2.77.16,1.54.33,2.31.52,5.15,1.27,10.13,3.22,14.93,5.49,7.18,3.42,14.01,7.5,20.74,11.75.1-.17.19-.34.27-.5-6.72-4.26-13.54-8.36-20.74-11.8ZM551.96,346.57c-8.1.25-16,2.75-22.99,6.78-.29.16-.58.33-.86.5-1.77,1.06-3.48,2.22-5.11,3.46-8.57,6.52-15.41,14.9-21.92,23.33-3.26,4.23-6.46,8.49-9.84,12.61-.24.3-.49.59-.74.89.13.19.25.37.38.55.29-.34.58-.68.86-1.03,3.4-4.13,6.61-8.39,9.88-12.61,6.51-8.4,13.34-16.72,21.82-23.15,1.84-1.4,3.76-2.69,5.76-3.85.27-.17.55-.33.83-.48,2.33-1.31,4.76-2.43,7.26-3.36l1.87-.68c.62-.22,1.27-.37,1.91-.56l1.91-.53,1.95-.39c2.58-.6,5.23-.84,7.87-.82h.12l-.96-.66ZM489.81,343.08c-3.5,1.55-7.15,2.73-10.89,3.49l-1.95.38c-.65.12-1.31.16-1.97.25l-1.97.23-1.99.08c-1.83.13-3.66.09-5.48-.1l.18.66c8.42.71,16.94-1,24.63-4.44-.18-.19-.37-.37-.56-.55ZM475.39,330.66c-3.57,2.39-7.24,4.64-11.04,6.61-.02.27-.03.54-.03.82,4.08-2.08,7.98-4.49,11.77-7.05-.24-.14-.47-.27-.7-.38Z"/>
      <g>
        <path class="cls-4" d="M560.75,366.91c-1.34-1.11-2.69-2.18-4.05-3.26-2.75-2.18-5.51-4.35-8.28-6.51-5.5-4.3-11.11-8.43-16.78-12.51-3.22-2.31-6.37-4.75-9.68-6.93-.16-.11-.33.11-.18.24,2.63,2.32,5.45,4.44,8.18,6.65,2.73,2.21,5.44,4.43,8.22,6.59,5.51,4.28,11.08,8.47,16.71,12.59,1.58,1.16,3.12,2.38,4.75,3.47.84.56,1.62,1.18,2.47,1.72.85.55,1.73,1.03,2.56,1.6.09.06.19-.07.1-.14-1.36-1.15-2.64-2.39-4.02-3.53Z"/>
        <path class="cls-4" d="M510.46,361.86c-2.02,5.18-3.43,10.59-4.76,15.98-.66,2.68-1.18,5.39-1.69,8.09-.5,2.66-.94,5.42-1.08,8.12,0,.1.14.11.17.02.83-2.61,1.45-5.32,2.06-7.99.61-2.69,1.28-5.36,1.88-8.05,1.21-5.37,2.62-10.71,3.68-16.12.03-.17-.2-.22-.26-.06Z"/>
      </g>
      <path class="cls-17" d="M533.94,418.93c-3.57,2.9-7.02,4.63-10.15,4.6-18.69-.16-45.7-47.11-55.05-67.39-5.79-12.56-5.85-23.94-.58-26.38l65.78,89.17Z"/>
      <path class="cls-18" d="M504.94,464.64h-121.57c-1.34-2.46,18.58-108.94,59.58-138.93,9.1-6.65,25.23-2.37,29.72,4.09,22.56,32.51,32.26,134.83,32.26,134.83Z"/>
      <path class="cls-8" d="M498.63,417.37c-3.04-1.06-6.01-2.33-8.91-3.71-4.07-1.95-8.02-4.11-11.91-6.39-.19-.11-.38-.22-.57-.34-4.03-2.37-7.98-4.88-11.92-7.41-.18-.12-.37-.24-.56-.36-.89-.58-1.77-1.15-2.66-1.72-8.96-5.77-17.86-11.71-27.47-16.33-4.8-2.28-9.8-4.22-15.03-5.16-2.61-.45-5.28-.63-7.92-.44-.66.05-1.31.14-1.97.23-.45.09-.9.15-1.36.24.07-.16.13-.31.21-.47.36-.07.73-.13,1.09-.21.66-.08,1.33-.18,2-.23,2.68-.2,5.38-.02,8.03.43,5.29.94,10.33,2.88,15.16,5.17,9.66,4.62,18.58,10.56,27.56,16.31.88.56,1.76,1.13,2.64,1.69.19.12.38.25.57.36,4.01,2.57,8.04,5.12,12.15,7.53.19.11.38.23.57.34,3.8,2.21,7.67,4.31,11.65,6.2,2.79,1.32,5.63,2.53,8.53,3.55l.12.72ZM487.81,366.6c-.14.13-.28.26-.41.39-7.71,7.51-13.47,16.67-18.9,25.83-1.15,1.95-2.3,3.9-3.46,5.85-.09.17-.18.33-.28.49-1.47,2.48-2.95,4.95-4.49,7.38-1.35,2.14-2.76,4.25-4.26,6.29-.14.19-.27.38-.41.56-1.53,2.05-3.15,4.02-4.9,5.87-1.85,1.89-3.79,3.72-5.98,5.2l-.81.57c-.27.19-.57.34-.85.51l-1.71,1c-1.21.53-2.37,1.18-3.64,1.55-5,1.73-10.34,2.47-15.64,2.53-5.31.04-10.61-.67-15.81-1.79-4.97-1.06-9.85-2.48-14.74-3.9-.04.16-.08.32-.13.47,4.88,1.43,9.78,2.87,14.76,3.94,5.22,1.14,10.56,1.86,15.93,1.84,5.35-.06,10.73-.79,15.82-2.54,1.3-.37,2.49-1.03,3.72-1.57l1.75-1.02c.29-.17.59-.32.86-.52l.83-.58c2.24-1.5,4.21-3.35,6.09-5.26,1.87-1.99,3.6-4.1,5.22-6.29.15-.19.28-.37.41-.56,1.42-1.94,2.76-3.93,4.04-5.95,1.55-2.43,3.03-4.9,4.5-7.37.1-.17.2-.33.29-.49,1.16-1.95,2.31-3.91,3.47-5.86,5.44-9.15,11.2-18.23,18.83-25.65.04-.04.09-.08.13-.12-.08-.27-.16-.54-.23-.8ZM493.58,390.35c-.77.97-1.55,1.94-2.34,2.9-3.37,4.12-6.97,8.06-11.05,11.46-.8.63-1.6,1.26-2.43,1.85-.17.13-.35.25-.52.37-1.16.81-2.37,1.56-3.63,2.2l-.87.47c-.29.16-.61.27-.91.41l-1.82.78c-1.26.38-2.49.88-3.8,1.09-3.08.66-6.26.96-9.43.96-.25,0-.51,0-.77-.01-1.88-.02-3.76-.15-5.63-.35-5.28-.61-10.45-1.96-15.47-3.71-5.04-1.73-9.93-3.86-14.83-5.96-4.91-2.09-9.83-4.22-14.98-5.69-1.51-.43-3.04-.81-4.6-1.09-.05.14-.1.28-.15.43,1.56.29,3.11.66,4.62,1.1,5.11,1.47,10.01,3.6,14.91,5.7,4.9,2.11,9.8,4.25,14.85,6.01s10.26,3.13,15.59,3.76c1.76.2,3.52.33,5.28.36.26.01.51.02.77.01,3.34.04,6.69-.25,9.97-.94,1.33-.22,2.59-.73,3.88-1.11l1.86-.8c.31-.14.62-.25.92-.41l.89-.48c1.37-.69,2.67-1.5,3.92-2.39.17-.12.35-.24.52-.37.76-.55,1.51-1.13,2.25-1.72,4.13-3.42,7.77-7.39,11.16-11.52.68-.82,1.35-1.65,2.01-2.49-.05-.27-.11-.55-.17-.82ZM481.02,346.1c-.7.17-1.4.33-2.1.47l-1.95.38c-.65.12-1.31.16-1.97.25l-1.97.23-1.99.08c-2.65.19-5.3.01-7.9-.42-4.09-.67-8.04-2.05-11.76-3.89-.33-.16-.65-.32-.98-.49-.7-.36-1.39-.74-2.07-1.13-4.6-2.64-8.84-5.87-12.82-9.38-.15.14-.29.29-.44.44,4.01,3.54,8.28,6.81,12.93,9.5.48.28.97.55,1.46.81.32.17.64.34.96.5,3.96,2.03,8.19,3.57,12.6,4.31,6.1.9,12.31.48,18.26-.99-.09-.23-.18-.45-.26-.67ZM473.9,331.65c-5.36,3.5-10.94,6.63-16.91,8.95-2.15.84-4.35,1.54-6.59,2.11-.31.08-.62.16-.94.24-2.6.6-5.24,1.02-7.9,1.23l-1.98.13c-.66.05-1.32.01-1.99.01h-1.98s-1.98-.17-1.98-.17c-2.42-.13-4.8-.55-7.12-1.19-.14.19-.28.38-.41.58,7.96,2.09,16.37,1.89,24.32-.09.32-.08.64-.16.96-.25,2-.53,3.96-1.17,5.88-1.92,6.02-2.35,11.63-5.51,17.01-9.03-.12-.2-.25-.4-.37-.6ZM503.81,454.18c-1.04,0-2.08.09-3.12.12-.03,0-.05,0-.08.01-.2.01-.41.03-.61.05-5.12.48-10.09,2.07-14.67,4.36-3.29,1.7-6.41,3.71-9.37,5.92h.63c2.83-2.08,5.8-3.96,8.92-5.56,4.64-2.31,9.67-3.89,14.84-4.33.12-.01.25-.02.37-.03.08,0,.16,0,.24-.01.97-.03,1.94-.11,2.9-.1-.02-.14-.03-.28-.05-.43ZM504.33,458.78c-1.09-1.38-2.21-2.74-3.37-4.07-.11-.14-.23-.27-.35-.4-.13-.16-.27-.32-.41-.48-3.56-3.98-7.44-7.75-11.95-10.68-2.25-1.45-4.67-2.67-7.22-3.53-.63-.21-1.29-.39-1.93-.57-.66-.13-1.31-.32-1.98-.41-1.32-.25-2.67-.27-4-.4-5.37-.26-10.75.72-15.79,2.51-5.03,1.86-9.77,4.4-14.25,7.3-7.98,5.15-15.29,11.21-23.08,16.59h.35c7.75-5.29,15.02-11.24,22.92-16.28,4.48-2.88,9.2-5.41,14.2-7.23,5-1.77,10.32-2.73,15.63-2.47,1.31.14,2.65.16,3.95.41.66.09,1.29.28,1.94.41.64.18,1.28.35,1.9.56,2.51.85,4.89,2.06,7.11,3.5,4.45,2.9,8.3,6.64,11.83,10.62.06.07.12.13.17.2.12.13.23.26.35.39,1.4,1.63,2.77,3.29,4.09,4.99-.03-.31-.07-.62-.11-.96Z"/>
      <path class="cls-16" d="M426.81,338.76c-24.74,28.64-58.11,79.2-44.48,90.38,22.41,18.38,87.86,28.97,102.88,30.78,6.48.78,19.46-41.58,15.13-47.06-4.33-5.48-73.53-9.35-74.02-13.6-.28-2.41,10.23-23.37,16.99-49.08,7.8-29.64-9.54-19.5-16.51-11.42Z"/>
      <path class="cls-16" d="M489.01,409.37s19.86-.15,32.85.36c7.25.29,19.63,1.88,24.86,4.53,7.82,3.96,38,25.5,32.94,32.93-4.59,6.73-28.17-15.07-28.17-15.07,0,0,25.74,19.9,18.73,26.98-7.01,7.08-30.38-21.09-30.38-21.09,0,0,25.99,21.03,17.6,27.2-6.34,4.66-28.94-19.67-28.94-19.67,0,0,22.21,18.23,15.9,23.3-6.97,5.6-29.24-15.54-29.24-15.54-18.21,10.19-31.05,7.59-39.96,4.65-2.16-.71,13.8-48.57,13.8-48.57Z"/>
      <g>
        <path class="cls-4" d="M543.03,424.66c3.11,2.23,6.27,4.46,9.17,6.96,2.9,2.5,5.71,5.1,8.37,7.85,6.51,6.76,9.53,12.01,9.31,11.7-5.25-7.19-15.49-16.28-18.39-18.78-2.89-2.49-5.66-5.13-8.55-7.62-.07-.06.03-.16.1-.11Z"/>
        <path class="cls-4" d="M533.82,434.97c3.85,3.02,7.77,5.87,11.49,9.06,3.7,3.17,8.72,7.79,12.19,11.21.27.26,0,.76-.28.5-3.6-3.28-8.95-7.75-12.59-10.99-3.63-3.22-7.15-6.61-10.89-9.7-.06-.05.02-.13.08-.09Z"/>
        <path class="cls-4" d="M524.33,442.39c6.11,4.31,11.42,9.74,16.51,15.19.25.27-.05.31-.33.05-5.39-5.15-9.58-9.23-16.33-15.03-.11-.09.02-.3.15-.21Z"/>
        <path class="cls-4" d="M486.21,408.75c9.06-.06,35.67-.13,44.71.56,7.97.61,14.59,2.34,21.31,6.78,14.4,9.52,23.68,20.7,25.98,24.03,1.4,2.02,3.43,5.23,1.57,7.46-2.26,2.72-10.62.07-19.43-7.9-.32-.29-.12-.47.21-.2,12.37,10.02,17.3,8.87,18.59,7.15.83-1.11.03-3.03-.72-4.5-1.09-2.13-2.79-4.07-4.38-5.83-5.48-6.06-12.11-11.61-18.71-16.4-7.6-5.51-15.66-8.63-25.03-9.39-9.26-.76-34.88-.52-44.12-1.41-.2-.02-.16-.34.03-.34Z"/>
        <path class="cls-4" d="M571.69,455.12c-.51-2.48-2.29-4.73-3.7-6.77-1.74-2.52-3.65-5-5.87-7.13-.1-.09-.26.02-.17.14,1.83,2.22,3.63,4.43,5.19,6.86.84,1.32,1.61,2.67,2.3,4.08.66,1.35,1.42,2.91,1.08,4.45-.64,2.95-4.38,2.87-6.59,2.08-1.44-.52-2.81-1.24-4.12-2-1.36-.79-3.88-2.75-5.05-3.81-.14-.12-.49-.08-.35.06,3.3,3.14,9.54,9.68,14.64,7.28,2.04-.96,3.11-3,2.65-5.22Z"/>
      </g>
      <path class="cls-18" d="M489.29,406.8l-23.79,53.98s-83.12-18.74-87.95-34.53c-4.82-15.8,21.23-58.04,44.74-84.36,23.12-25.89,26.54-8.33,20.79,11.71-5.75,20.04-15.18,43.12-14.13,44.84,1.05,1.73,60.33,8.36,60.33,8.36Z"/>
      <path class="cls-8" d="M434.33,380.43c-.06.15-.11.31-.17.46-4.65-2.18-9.5-4.03-14.56-4.94-2.61-.45-5.28-.63-7.92-.44-.66.05-1.31.14-1.97.23-.64.13-1.3.2-1.94.38-1.3.28-2.53.78-3.8,1.17-4.91,1.8-9.37,4.71-13.24,8.22.21-.36.42-.72.63-1.09,3.69-3.19,7.87-5.84,12.46-7.53,1.28-.4,2.53-.91,3.85-1.19.65-.18,1.32-.26,1.98-.4.66-.08,1.33-.18,2-.23,2.68-.2,5.38-.02,8.03.43,5.1.91,9.98,2.75,14.65,4.93ZM478.33,406.9c-.19-.11-.38-.23-.57-.34-.77-.45-1.53-.9-2.28-1.35-.45-.06-.91-.11-1.38-.16,1.04.63,2.09,1.27,3.14,1.88.19.12.38.23.57.34,2.98,1.75,6,3.43,9.08,4.98l.24-.55c-2.98-1.51-5.91-3.12-8.8-4.8ZM462.1,403.59c-.6.99-1.21,1.97-1.83,2.95-1.35,2.14-2.76,4.25-4.26,6.29-.14.19-.27.38-.41.56-1.53,2.05-3.15,4.02-4.9,5.87-1.85,1.89-3.79,3.72-5.98,5.2l-.81.57c-.27.19-.57.34-.85.51l-1.71,1c-1.21.53-2.37,1.18-3.64,1.55-5,1.73-10.34,2.47-15.64,2.53-5.31.04-10.61-.67-15.81-1.79-5.21-1.11-10.32-2.62-15.45-4.11-4.55-1.32-9.13-2.65-13.81-3.52-.01.16-.02.32-.02.47,4.63.87,9.16,2.21,13.69,3.52,5.12,1.5,10.25,3.03,15.48,4.15,5.22,1.14,10.56,1.86,15.93,1.84,5.35-.06,10.73-.79,15.82-2.54,1.3-.37,2.49-1.03,3.72-1.57l1.75-1.02c.29-.17.59-.32.86-.52l.83-.58c2.24-1.5,4.21-3.35,6.09-5.26,1.87-1.99,3.6-4.1,5.22-6.29.15-.19.28-.37.41-.56,1.42-1.94,2.76-3.93,4.04-5.95.68-1.06,1.34-2.14,2-3.21l-.72-.09ZM479.02,405.62c-.41.32-.83.64-1.26.94-.17.13-.35.25-.52.37-1.16.81-2.37,1.56-3.63,2.2l-.87.47c-.29.16-.61.27-.91.41l-1.82.78c-1.26.38-2.49.88-3.8,1.09-3.08.66-6.26.96-9.43.96-.25,0-.51,0-.77-.01-1.88-.02-3.76-.15-5.63-.35-5.28-.61-10.45-1.96-15.47-3.71-5.04-1.73-9.93-3.86-14.83-5.96-4.91-2.09-9.83-4.22-14.98-5.69-5.13-1.47-10.6-2.27-15.91-1.23-1.7.33-3.32.92-4.86,1.69-.1.2-.2.41-.29.61,1.65-.86,3.41-1.53,5.23-1.88,5.22-1.01,10.62-.22,15.7,1.25,5.11,1.47,10.01,3.6,14.91,5.7,4.9,2.11,9.8,4.25,14.85,6.01s10.26,3.13,15.59,3.76c1.76.2,3.52.33,5.28.36.26.01.51.02.77.01,3.34.04,6.69-.25,9.97-.94,1.33-.22,2.59-.73,3.88-1.11l1.86-.8c.31-.14.62-.25.92-.41l.89-.48c1.37-.69,2.67-1.5,3.92-2.39.17-.12.35-.24.52-.37.52-.38,1.04-.78,1.56-1.18-.28-.03-.57-.06-.87-.1ZM435.48,332.18c-.43-.38-.85-.75-1.27-1.14-.17.11-.35.22-.54.35.46.41.93.83,1.4,1.25,3.27,2.89,6.72,5.6,10.4,7.95.02-.25.03-.5.04-.74-3.54-2.27-6.87-4.89-10.03-7.67ZM441.56,344.18l-1.98.13c-.66.05-1.32.01-1.99.01h-1.98s-1.98-.17-1.98-.17c-2.65-.14-5.26-.64-7.8-1.38-1.11-.33-2.21-.71-3.29-1.15l-.24.27c-.08.09-.15.17-.23.26,1.16.49,2.36.91,3.57,1.27,6.33,1.74,12.96,2.01,19.43,1.08.04-.25.07-.49.11-.74-1.2.19-2.41.33-3.62.42ZM473.12,438.24c-5.37-.26-10.75.72-15.79,2.51-5.03,1.86-9.77,4.4-14.25,7.3-2.5,1.62-4.94,3.32-7.35,5.07.13.03.26.07.39.11h.01c2.34-1.69,4.71-3.32,7.14-4.87,4.48-2.88,9.2-5.41,14.2-7.23,5-1.77,10.32-2.73,15.63-2.47.69.07,1.38.11,2.07.17l.19-.42c-.74-.06-1.5-.1-2.24-.17Z"/>
      <path class="cls-4" d="M455.98,451.87c.81-1.53,1.59-3.08,2.37-4.63,1.57-3.14,3.13-6.28,4.68-9.44,3.08-6.26,5.98-12.6,8.82-18.98,1.61-3.62,3.35-7.2,4.8-10.89.07-.18-.18-.3-.27-.13-1.73,3.05-3.24,6.24-4.84,9.36-1.6,3.13-3.23,6.24-4.77,9.39-3.07,6.27-6.02,12.58-8.91,18.93-.81,1.78-1.69,3.54-2.42,5.36-.37.93-.82,1.83-1.18,2.77-.36.94-.66,1.91-1.05,2.83-.04.1.1.17.15.07.84-1.57,1.8-3.08,2.63-4.66Z"/>
      <path class="cls-4" d="M467.34,457.09l-1.67,3.78s-.06.13-.06.13l-.15-.03c-15.75-2.95-31.31-6.88-46.57-11.78-11.39-3.8-22.91-7.85-33.11-14.32-3.23-2.25-6.87-4.75-8.22-8.62,1.73,3.65,5.36,5.83,8.71,7.81,10.47,5.77,21.9,9.5,33.23,13.23,15.21,4.86,30.62,9.13,46.04,13.3,0,0-.21.1-.21.1l2-3.61h0Z"/>
      <path class="cls-16" d="M465.93,347.82c-7.05,2.01-19.78-8.33-25.01-16.94-.36-.59,1.06-24.91.84-29.76-.05-1,30.74,6.01,30.74,6.01,0,0-2.53,10.3-2.1,18.75.04.71,2.33,19.99-4.48,21.94Z"/>
      <path class="cls-13" d="M441.34,316.35c14.39,10.16,28.41,6.26,29.04,6.08.22-7.56,2.13-15.3,2.13-15.3,0,0-30.8-7.01-30.74-6.01.1,2.28-.16,8.84-.43,15.23Z"/>
      <g>
        <path class="cls-10" d="M472.37,287.1c.79,7.18,6.53,12.43,12.83,11.74,6.3-.69,10.76-7.07,9.97-14.25-.79-7.18-6.53-12.43-12.83-11.74-6.3.69-10.76,7.07-9.97,14.25Z"/>
        <path class="cls-11" d="M468.73,287.96c.88,7.98,7.27,13.83,14.27,13.06,7-.77,11.97-7.87,11.09-15.85-.88-7.98-7.27-13.83-14.27-13.06-7,.77-11.97,7.87-11.09,15.85Z"/>
      </g>
      <path class="cls-16" d="M437.51,264.59c-3.36,10.77,2.15,41.99,9.79,48.99,11.07,10.15,29.28,11.22,37.93-2.11,8.38-12.92.48-53.47-8.06-59.84-12.57-9.38-34.69-2.96-39.65,12.96Z"/>
      <g>
        <g>
          <path class="cls-4" d="M463.46,284.19c-.03-.08-.14.13-.13.22.47,2.08.65,4.55-1.11,5.61-.05.03-.03.14.04.11,2.25-.77,1.97-4.04,1.2-5.94Z"/>
          <path class="cls-4" d="M461.17,282.36c-3.42.39-2.39,7.2.78,6.84,3.12-.36,2.09-7.17-.78-6.84Z"/>
        </g>
        <g>
          <path class="cls-4" d="M475.59,282.55c0-.08.18.07.19.16.25,2.12.9,4.51,2.91,4.92.06.01.07.12,0,.12-2.38.02-3.21-3.15-3.11-5.2Z"/>
          <path class="cls-4" d="M477.15,280.06c3.36-.77,4.65,6,1.54,6.71-3.06.7-4.36-6.07-1.54-6.71Z"/>
        </g>
        <path class="cls-4" d="M458.01,279.65c.89-.37,1.65-.87,2.5-1.33.95-.52,1.77-.84,2.29-1.84.28-.54,0-1.39-.5-1.71-1.16-.75-2.48-.4-3.66.18-1.27.63-2.09,1.44-2.68,2.73-.57,1.25.87,2.47,2.05,1.97Z"/>
        <path class="cls-4" d="M479.26,276.23c-.97-.01-1.86-.18-2.81-.29-1.08-.12-1.95-.11-2.81-.85-.46-.39-.52-1.28-.18-1.77.79-1.13,2.15-1.31,3.46-1.21,1.42.1,2.48.55,3.51,1.52,1,.94.12,2.61-1.15,2.6Z"/>
        <path class="cls-4" d="M464.62,303.98c.58.42,1.19,1.02,1.96.97.74-.05,1.56-.51,2.19-.87.06-.04.14.02.11.09-.43.89-1.5,1.58-2.51,1.55-.98-.02-1.58-.78-1.94-1.62-.05-.12.1-.19.19-.13Z"/>
        <path class="cls-4" d="M465.88,297.32c1.46,1.65,3.35,2.39,5.28,2.47.86.04,1.75-.06,2.6-.27.17-.03.34-.07.49-.13.15-.04.29-.08.45-.14.24-.07.35-.3.35-.54v-.02c-.02-.08-.03-.14-.06-.21v-.02s-.03-.18-.03-.18c-.2-1.63-.73-4.08-.73-4.08.64.21,3.87,1.11,3.7.27-1.48-6.97-3.13-14.71-6.08-21.33-.09-.22-.43-.12-.38.11,1.16,6.75,3.5,13.25,4.77,20.02-1.02-.22-2.7-.66-3.55-.52-.22.1,1.11,4.71,1.14,5.45,0,0,0,.03,0,.08-2.68.76-4.86.25-7.79-1.18-.18-.1-.32.07-.17.22Z"/>
        <g>
          <path class="cls-4" d="M472.68,298.84s-1.15,2.16-3.01,3.16c-.69.37-1.45.59-2.31.5-1.75-.19-2.03-1.73-1.92-3.1.09-1.13.45-2.14.45-2.14,0,0,2.81,1.93,6.79,1.58Z"/>
          <path class="cls-3" d="M469.67,302c-.69.37-1.45.59-2.31.5-1.75-.19-2.03-1.73-1.92-3.1,1.83-.09,3.81.87,4.23,2.6Z"/>
        </g>
      </g>
      <g>
        <path class="cls-5" d="M442.64,275.68c-1.23,3.09-3.76,10.37-5.2,10.89-1.37-10.12-1.42-19.3,1.09-24.94,1.09-2.44,2.49-4.42,4.29-6.26.21,2.71,1.12,17.06-.19,20.31Z"/>
        <g>
          <path class="cls-4" d="M469.69,261.21c-1.77,2.97-4.93,4.91-8.41,4.97-3.39.06-7.07-1.63-8.83-4.62-.05-.09-.19,0-.14.08,1.88,3.19,5.15,5.51,8.97,5.35,3.58-.15,7.06-2.43,8.62-5.66.07-.14-.13-.26-.21-.12Z"/>
          <path class="cls-4" d="M490.55,245.11c-1.41-2.65-3.81-4.72-6.59-5.82-3.9-1.54-7.81-.51-11.68.6-.1.03-.06.19.05.16,3.29-.93,6.69-1.68,10.05-.66,2.74.83,5.23,2.6,6.82,5,3.29,4.99,2.3,12.08-2.31,15.91-2.61,2.17-6.15,3.18-9.51,2.72-.13-.02-.19.18-.06.2,6.17,1,12.53-2.87,14.16-8.98.8-3.01.54-6.38-.94-9.15Z"/>
          <path class="cls-4" d="M436.6,270.81s-7.23-9.29-3.72-16.01c1.99-3.81,10.61-4.86,10.61-4.86,0,0,2.01-4.41,8.81-7.27,6.87-2.89,15.98-1.18,15.98-1.18,0,0,6.11-5.08,13.11-2.55,9.76,3.52,11.01,17.22,2.84,23.13-5.74,4.15-15.22.08-15.22.08-.8.25-8.3,6.77-15.94.4,0,0-4.35,5.48-9.54,3.08,0,0-1.53,5.05-6.92,5.18Z"/>
        </g>
      </g>
      <g>
        <path class="cls-2" d="M444.02,290.04s-7.19-9.98-11.73-7.41c-4.54,2.58.97,17.12,6.36,19.04,5.4,1.92,7.28-3.04,7.28-3.04l-1.91-8.6Z"/>
        <path class="cls-4" d="M433.98,286.76c-.09,0-.1.11-.03.14,3.79,1.47,5.82,4.94,7.26,8.54-1.14-1.38-2.67-2.12-4.52-.76-.1.07,0,.22.1.2,1.54-.35,2.65-.1,3.71,1.12.75.86,1.27,1.96,1.81,2.97.18.33.79.15.65-.24,0-.03-.02-.06-.03-.09.03-4.8-3.8-11.47-8.96-11.88Z"/>
      </g>
      <g>
        <path class="cls-11" d="M438.04,282.99s-3.89-15.5-.86-24.99c3.37-10.56,16.08-20.9,31.1-16.51,0,0-16.67,2.15-24.77,16.08-3.72,6.4-.15,24.89-.15,24.89l-5.31.53Z"/>
        <path class="cls-11" d="M454.17,288.26c1.53,7.98-2.91,15.54-9.91,16.88-7,1.34-13.92-4.04-15.44-12.02-1.53-7.98,2.91-15.54,9.91-16.88,7-1.34,13.92,4.04,15.44,12.02Z"/>
        <path class="cls-10" d="M450.39,288.51c1.37,7.17-2.61,13.97-8.91,15.17-6.29,1.21-12.51-3.63-13.88-10.81-1.37-7.17,2.61-13.97,8.91-15.17,6.29-1.21,12.51,3.63,13.88,10.81Z"/>
      </g>
      <polygon class="cls-18" points="53.6 464.64 176.27 464.64 151.81 322.37 60.08 322.37 53.6 464.64"/>
      <polygon class="cls-14" points="53.6 464.64 64.36 464.64 70.39 322.37 60.08 322.37 53.6 464.64"/>
      <g>
        <path class="cls-4" d="M126.34,260.32c-11.39,11.33-14.65,29.97-14.65,29.97,0,0-10.92,18.79-7.87,28.96,3.05,10.17,11.82,12.57,11.82,12.57l-1.08-5.64s3.66,7.25,15.89,10.17c12.23,2.93,28.41-.85,36.82-5.11,8.41-4.26,12.37-10.88,12.37-10.88l-3.16,8.2s11.87-.42,18.92-13.04c7.05-12.63-13.2-30.78-14.92-34.69-1.72-3.91-3.9-32.4-33.87-27.49,0,0-12.43-.83-20.27,6.97Z"/>
        <path class="cls-4" d="M111.3,331.09c-3.11-2.34-6.2-5.04-7.92-8.3-1.82-3.45-2.59-7.36-1.89-11.23.83-4.61,3.26-8.68,5.63-12.65,2.44-4.1,5.19-8.03,7.56-12.17.13-.23-.21-.42-.38-.24-2.72,3.03-5.09,6.48-7.44,9.81-2.24,3.17-4.44,6.45-5.89,10.06-1.32,3.28-2.07,6.97-1.38,10.49.57,2.9,1.9,5.58,3.75,7.88,2.21,2.75,5.02,4.51,7.8,6.58.17.13.33-.12.16-.25Z"/>
        <path class="cls-4" d="M197.93,302.53c-3.59-10.49-13.03-17.14-18.76-26.29-3.11-4.95-5.51-10.44-9.56-14.74-.11-.12-.31.07-.21.19,3.32,3.87,5.24,8.53,7.64,12.96,2.44,4.51,5.65,8.44,8.91,12.36,5.94,7.13,13.05,15.55,11.69,25.52-.63,4.6-3.35,9.7-8.07,11.14-.18.06-.07.35.11.28,3.81-1.59,6.68-4.41,8.23-8.27,1.7-4.24,1.47-8.88,0-13.16Z"/>
        <path class="cls-4" d="M198.37,305.36c.26-3.96-.54-7.98-2.62-11.38-2.07-3.38-5.32-5.82-8.57-7.99-3.75-2.5-7.7-4.86-10.08-8.82-.1-.17-.34.01-.24.17,3.78,6.52,10.96,9.56,15.82,15.04,5.56,6.27,5.56,15.41,1.74,22.58-2.35,4.41-5.94,8.05-10.01,10.89-.07.05,0,.16.08.11,7.08-4.66,13.32-11.8,13.89-20.61Z"/>
      </g>
      <g>
        <path class="cls-13" d="M153.04,353.15c30.35,16.65,66.68,37.57,88.94,32.64,9.86-2.18,54.19-60.27,56.06-66.97,1.62-5.77-38.51-29.01-43.02-24.46-7.56,7.64-28.04,50.6-30.97,51.31-3.06.73-28.48-4.45-55.03-9.24-25.48-4.6-37.05,5.15-15.98,16.72Z"/>
        <g>
          <g>
            <path class="cls-13" d="M293.74,325.99c3.46-4.36,17.58-25.74,20.18-32.57,2.6-6.83,8.65-27.02,3.62-29.54-5.03-2.52-7.27,3.25-7.27,3.25,0,0,1.2-8.93-4.09-11.01-5.29-2.08-8.49,7.02-8.49,7.02,0,0,.57-9.26-4.86-10.95-5.43-1.69-7.11,7.99-7.11,7.99,0,0,.91-8.44-4.14-7.96-6.08.58-6.01,16.34-9.44,23.67-.78,1.66-18.2,32.58-18.2,32.58l39.8,17.53Z"/>
            <g>
              <path class="cls-4" d="M285.89,259.35c.03,11.59-1.97,16.66-8.04,26.32-.12.19.14.41.28.22,6.8-8.92,10.22-14.92,8.32-26.57-.09-.57-.56-.52-.56.03Z"/>
              <path class="cls-4" d="M297.68,262.22c-1.02,12.04-3.14,17.56-8.75,28.15-.08.15.17.3.26.16,6.37-9.92,9.65-15.99,9.09-28.15-.02-.55-.55-.7-.6-.15Z"/>
              <path class="cls-4" d="M309.97,267.67c-1.83,11.58-3.89,17.74-10.66,27.32-.16.23.15.48.34.27,7.85-9.09,10.47-16.76,10.67-27.49.01-.73-.23-.82-.35-.09Z"/>
            </g>
          </g>
          <g>
            <path class="cls-13" d="M245.39,311.89s-.85-14.5.19-20.95c1.03-6.45,13.73-29.07,18.77-26.61,6.51,3.18,1.75,17.68-1.51,24.48,0,0,15.06,7.35,13.9,18.49-1.16,11.15-31.35,4.57-31.35,4.57Z"/>
            <path class="cls-4" d="M265.85,265.8c3.84,7.18-1.01,15.83-3.68,22.66-.2.52.14.87.57.94,6.11,3.5,13.7,10.22,14.36,17.62.02.22.33.22.34,0,.38-8.03-6.55-15.24-13.48-18.65,2.85-6.96,7.33-15.85,1.96-22.62-.03-.04-.09,0-.07.04Z"/>
          </g>
        </g>
      </g>
      <path class="cls-14" d="M216.84,343.29l-36.54,30.62s-22.3-11.6-38.77-24.93c-16.47-13.33,1.78-19.81,30.05-15.06,28.27,4.75,45.26,9.37,45.26,9.37Z"/>
      <path class="cls-8" d="M173.57,349.43c-1.06-1.37-2.17-2.7-3.57-3.83.71,1.65,1.66,3.09,2.7,4.49,1.06,1.37,2.18,2.69,3.57,3.81-.71-1.64-1.65-3.08-2.7-4.47ZM141.55,348.99c.15.11.29.23.44.34.29-.31.58-.64.85-.98-.44.19-.87.41-1.29.64ZM202.7,349.19c-1.72-.21-3.45-.35-5.22-.16,1.65.66,3.36,1.01,5.06,1.27,1.72.22,3.45.36,5.22.17-1.65-.66-3.35-1.02-5.06-1.28ZM190.47,337.35c-.02.66,0,1.32.07,1.98.25-.61.45-1.22.62-1.84-.23-.05-.46-.09-.69-.14Z"/>
      <path class="cls-4" d="M172.13,367.36c7.43-7.14,15.37-13.77,23.42-20.22,2.28-1.83,4.6-3.6,6.96-5.32.07-.05.16.03.09.09-3.79,3.49-7.71,6.82-11.62,10.17-3.92,3.36-7.87,6.7-11.88,9.95-2.27,1.84-4.53,3.67-6.83,5.46-.1.08-.23-.05-.14-.14Z"/>
      <path class="cls-4" d="M195.83,360.89l-15.53,13.01s-22.3-11.59-38.78-24.92c-5.84-4.73-7.31-8.59-5.53-11.4l59.83,23.32Z"/>
      <path class="cls-14" d="M188.33,464.52h-116.43s25.29-97.67,48.7-125.16c.52-.63,1.06-1.23,1.61-1.79.11-.13.21-.22.32-.34,2.02-2.11,4.13-3.7,6.25-4.83.41-.22.82-.43,1.25-.62,9.02-4.14,18.54-.71,25.41,5.17,2.18,1.87,26.86,33.97,29.04,46.22,1.89,10.81-5.41,22.42-5.41,22.42l9.28,58.93Z"/>
      <g>
        <path class="cls-4" d="M161.58,401.4c-4.94.55-9.9,1.27-14.71,2.55-2.39.64-4.74,1.38-7.09,2.17-1.17.4-2.34.75-3.53,1.1-1.21.36-2.52.7-3.79.75-.11,0-.11.18,0,.18,1.24.02,2.42.04,3.65-.1,1.17-.13,2.34-.4,3.48-.69,2.43-.62,4.84-1.36,7.26-2,4.9-1.3,9.79-2.61,14.77-3.56.23-.04.17-.43-.07-.41Z"/>
        <path class="cls-4" d="M173.88,405.69c-4.07-.38-8.22-.57-12.31-.48-2.06.04-4.09.2-6.14.42-.98.1-1.95.22-2.92.36-1.07.15-2.12.44-3.19.57-.11.01-.11.19,0,.18,1.01-.09,2.05-.02,3.07-.05,1.02-.03,2.05-.07,3.07-.11,2.05-.07,4.1-.11,6.15-.2,4.1-.17,8.18-.31,12.29-.34.22,0,.2-.32,0-.34Z"/>
      </g>
      <path class="cls-8" d="M109.54,362.31c-.55-.7-1.11-1.39-1.72-2.05-.14.3-.29.6-.43.9.4.62.83,1.23,1.27,1.82,1.07,1.37,2.18,2.69,3.57,3.8-.71-1.63-1.68-3.07-2.69-4.47ZM123.05,336.69c-.17,1.55-.27,3.11-.1,4.71.66-1.66,1.01-3.36,1.25-5.09.04-.26.07-.53.1-.79-.42.37-.84.76-1.25,1.17ZM158.38,369.23c-.67,1.66-1.02,3.38-1.28,5.08-.21,1.73-.35,3.46-.17,5.23.67-1.66,1.02-3.36,1.26-5.08.23-1.71.38-3.43.19-5.23ZM136.13,425.55c-.67,1.66-1,3.36-1.26,5.06-.21,1.73-.35,3.46-.16,5.23.66-1.66.99-3.36,1.25-5.06.21-1.73.36-3.45.17-5.23ZM98.32,382.99c-.66,1.66-.99,3.36-1.26,5.09-.21,1.7-.35,3.42-.16,5.22.66-1.65.99-3.36,1.25-5.08.22-1.73.36-3.45.17-5.23ZM129.62,375.85c-1.72-.21-3.45-.35-5.22-.16,1.65.66,3.36,1.01,5.06,1.27,1.72.22,3.45.36,5.22.17-1.65-.66-3.35-1.02-5.06-1.28ZM171.5,423.87c-1.73-.21-3.45-.35-5.23-.16,1.66.66,3.36.99,5.06,1.25,1.73.21,3.46.36,5.23.17-1.66-.66-3.36-1-5.06-1.26ZM93.27,419.28c-1.67-.21-3.37-.34-5.13-.18-.03,0-.07.01-.1.01l.09.03c1.65.65,3.32.97,5,1.23,1.72.21,3.45.35,5.22.16-1.65-.66-3.36-.99-5.08-1.25ZM137.19,460.57c-1.73-.21-3.45-.35-5.22-.16,1.65.66,3.35.99,5.08,1.25,1.7.21,3.43.35,5.22.16-1.67-.66-3.38-.99-5.08-1.25ZM89.95,455.51c-1.73-.21-3.45-.35-5.23-.16,1.66.66,3.36.99,5.06,1.25,1.73.24,3.45.35,5.23.16-1.66-.66-3.36-.99-5.06-1.25ZM138.37,351.05c-1.37,1.06-2.69,2.2-3.83,3.59,1.66-.71,3.1-1.68,4.5-2.69,1.37-1.07,2.69-2.2,3.8-3.6-1.63.71-3.07,1.68-4.47,2.7ZM150.83,404.58c-1.37,1.06-2.69,2.18-3.8,3.57,1.63-.71,3.07-1.65,4.47-2.7,1.37-1.06,2.69-2.17,3.8-3.57-1.63.71-3.07,1.66-4.47,2.7ZM107.14,437.3c-1.37,1.05-2.7,2.18-3.81,3.58,1.63-.71,3.07-1.68,4.47-2.7,1.37-1.06,2.7-2.2,3.83-3.57-1.65.68-3.1,1.65-4.49,2.69ZM179.7,390.23c-1.06-1.37-2.17-2.7-3.57-3.83.71,1.65,1.66,3.09,2.7,4.49,1.06,1.37,2.18,2.69,3.57,3.81-.71-1.64-1.65-3.08-2.7-4.47ZM164.81,450.78c-1.07-1.37-2.18-2.69-3.57-3.83.68,1.66,1.65,3.1,2.69,4.49,1.07,1.38,2.18,2.7,3.57,3.81-.71-1.63-1.67-3.07-2.69-4.47ZM120.97,403.14c-1.06-1.37-2.18-2.7-3.57-3.83.69,1.65,1.65,3.09,2.7,4.49,1.06,1.37,2.17,2.7,3.57,3.81-.71-1.64-1.68-3.08-2.7-4.47Z"/>
      <g>
        <path class="cls-13" d="M118.22,340.12c-22.39,18.05-79.74,89.57-66.8,106.11,13.03,16.65,98.87,8.99,123.82,1.18,7.42-2.32-12.82-49.41-20.85-51.58-6.68-1.81-43.71,9.15-44.43,7-.81-2.42,9.15-15.81,21.81-44.82,14.6-33.46-3.66-25.86-13.55-17.89Z"/>
        <g>
          <g>
            <path class="cls-13" d="M194.85,391.89c17.11,1.98,21.2,5.11,36.53-.89,10.06-3.94,16.89.8,9.53,9.29-12.03,13.89-34.65,15.97-42.69,14.44l-3.37-22.84Z"/>
            <path class="cls-13" d="M146.86,396.43s21.23-5.5,39.67-5.19c12.75.21,40.45,3.76,59.26,36.87,4.46,7.85,5.25,22.21-6.7,12.03-8.48-7.23-11.68-14.38-17.38-17.69,0,0-1.17,18.38-9.21,22.54-3.59,1.86-13.52,6.71-21.79,9.38,0,0-1.07-1.64-2.12-3.92,0,0-7.88,3.18-20.02-1.23l-21.72-52.78Z"/>
            <g>
              <path class="cls-13" d="M198.67,393.38c4.96,4.48,15.32,14.15,21.05,25.01,6.36,12.06,15.36,37.01,6.4,41.61-6.56,3.37-10.84-5.85-10.84-5.85,0,0,1.55,11.1-5.05,12.85-6.01,1.6-8.89-5.74-8.89-5.74,0,0-.22,6.89-6.31,7.31-7.32.51-5.66-14.02-13.52-19.91-1.76-1.32,17.14-55.28,17.14-55.28Z"/>
              <g>
                <path class="cls-4" d="M205.86,422.98c3.98,4.98,10.11,18.6,9.59,30.93-.01.28-.23.42-.27.16-2.31-13.7-7.09-25.95-9.43-31.03-.03-.07.07-.12.11-.06Z"/>
                <path class="cls-4" d="M193.87,429.75c2.99,4.65,8.68,18.97,7.73,31.45-.02.28-.25.41-.28.15-1.82-14.41-5.53-26.33-7.56-31.54-.03-.07.08-.11.12-.05Z"/>
              </g>
            </g>
          </g>
          <path class="cls-4" d="M221.74,422.34c4.97,2.98,7.79,6.53,11.51,10.86,1.84,2.14,3.72,4.26,5.8,6.19,1.89,1.75,4.65,4.38,7.47,3.13,1.57-.7,2.04-2.58,2.13-4.14.11-1.75-.12-3.52-.75-5.15-.03-.08.11-.14.15-.06.59,1.47,1.04,2.98,1.2,4.56.14,1.43.12,3.04-.6,4.33-1.56,2.76-5.16,2.25-7.43.79-1.36-.87-2.56-2.02-3.7-3.15-1.11-1.09-2.17-2.23-3.2-3.39-2.11-2.39-4.08-4.9-6.16-7.32-2.29-2.65-3.97-4.1-6.54-6.48-.09-.08.03-.22.13-.16Z"/>
          <path class="cls-4" d="M228.11,444.19c-.6-3.43-4.83-18.17-6.51-21.76-.04-.09.08-.16.14-.08,3.16,5.06,7.17,17.37,7.87,21.16.69,3.75,1.37,8.48.4,12.21-1.46,5.62-5.46,5.72-6.91,5.64-1.73-.1-3.3-.87-4.58-2.02-1.42-1.28-2.56-3.46-3.28-5.2-.04-.09.09-.17.14-.08,1.37,2.72,4.05,5.75,7.21,6.14,1.37.17,2.87-.09,3.96-.98,1.29-1.04,1.8-2.72,2.07-4.3.61-3.56.11-7.22-.5-10.75Z"/>
          <path class="cls-4" d="M201.6,461.2c.61.87,1.62,3.62,4.05,4.78,1.78.85,3.79,1.18,5.58.19,1.76-.97,2.77-2.72,3.35-4.59.33-1.06.67-5.89.66-7.38,0-.12.15-.13.16-.02.17,2.69.35,5.62-.28,8.05-.52,2.02-1.73,4.03-3.61,5.05-1.95,1.06-4.38.98-6.2-.3-.9-.63-3.54-3.48-3.94-5.72,0-.05.22-.1.24-.06Z"/>
          <path class="cls-4" d="M182.32,447.79c.75.75,1.31,1.73,1.86,2.63.59.96,1.15,1.95,1.68,2.95,1.07,1.99,1.88,4.17,2.51,6.34.64,2.2,1.14,4.6,2.65,6.41,1.48,1.77,3.92,2.62,6.12,1.75,1.15-.46,2.05-1.29,2.66-2.35.63-1.1,1.21-2.48,1.35-3.74.01-.11.18-.09.16.02-.21,1.21-.18,2.39-.63,3.56-.4,1.03-1.01,1.98-1.87,2.68-1.76,1.42-4.27,1.6-6.3.66-2.24-1.04-3.5-3.25-4.28-5.49-.87-2.5-1.45-5.07-2.43-7.53-.52-1.29-1.02-2.6-1.62-3.85-.63-1.31-1.48-2.55-2.02-3.89-.04-.11.08-.22.17-.13Z"/>
          <path class="cls-4" d="M174.5,450.88c1.81.31,6.06.68,9.54.47.1,0,.17.29.07.32-1.37.35-4.05.36-4.85.32-1.59-.08-3.28-.38-4.78-.93-.08-.03-.09-.19.02-.17Z"/>
        </g>
        <path class="cls-4" d="M76.34,413.54c5.32-2.62,10.9-4.74,16.53-6.56,5.59-1.81,11.34-3.01,17.12-3.98,3.3-.55,6.62-.94,9.95-1.36.1-.01.12.14.02.16-5.82.88-11.59,2.28-17.27,3.82-5.65,1.54-11.27,3.18-16.86,4.92-3.16.99-6.28,2.12-9.41,3.22-.15.05-.22-.16-.08-.22Z"/>
      </g>
      <path class="cls-9" d="M71.43,383.54l47.39,5.15s12.09-22.03,18.38-42.27c6.29-20.24-11.58-16.33-32.44,3.33-20.87,19.65-33.33,33.79-33.33,33.79Z"/>
      <path class="cls-14" d="M71.43,383.54l47.39,5.15s12.09-22.03,18.38-42.27c6.29-20.24-11.58-16.33-32.44,3.33-20.87,19.65-33.33,33.79-33.33,33.79Z"/>
      <path class="cls-8" d="M123.13,336.02c0,.05-.01.1-.02.15-.21,1.73-.35,3.45-.16,5.23.66-1.66,1.01-3.36,1.25-5.09.04-.3.08-.59.11-.89-.39.19-.78.39-1.18.6ZM98.32,382.99c-.44,1.11-.73,2.23-.96,3.37l.98.1c.09-1.14.11-2.29-.02-3.47ZM81.87,372.36h-.01c-.15.16-.31.32-.46.48.52-.01,1.04-.04,1.57-.09-.37-.15-.73-.28-1.1-.39ZM124.4,375.69c.28.11.57.22.86.31.05-.13.11-.25.18-.38-.34.01-.69.03-1.04.07ZM109.54,362.31c-1.07-1.37-2.18-2.69-3.57-3.83.68,1.66,1.65,3.1,2.69,4.5,1.07,1.37,2.18,2.69,3.57,3.8-.71-1.63-1.68-3.07-2.69-4.47Z"/>
      <g>
        <path class="cls-4" d="M116.91,388.26c.25.03,1.95-.02,1.96-.02.21-.6,4.28-9.95,5.29-11.97,2.05-4.11,4.35-8.11,6.59-12.12.07-.13.27-.04.21.1-1.58,3.5-3.11,7.03-4.72,10.52.4-.47.8-.94,1.19-1.43.79-.99,1.51-2.03,2.26-3.05.07-.09.21,0,.17.11-.69,1.47-1.66,2.81-2.7,4.04-.45.53-.95,1.02-1.46,1.49-.14.29-.27.58-.41.87-.97,2.03-5.93,12.08-6.1,12.06-.04,0-1.75-.21-2.28-.28-.13-.02-.13-.34,0-.33Z"/>
        <path class="cls-4" d="M80.37,375.5c10.28.69,20.53,2.1,30.72,3.7,2.88.45,5.76.98,8.62,1.57.08.02.08.14,0,.13-5.13-.45-10.23-1.11-15.34-1.74-5.12-.63-10.25-1.31-15.36-2.09-2.88-.44-5.77-.87-8.64-1.37-.12-.02-.12-.2.01-.2Z"/>
      </g>
      <g>
        <g>
          <g>
            <path class="cls-13" d="M134.84,333.14c.18,2.08,7.92,16.54,17.19,17.42,3.02.28,5.31-16.13,5.31-16.13l.45-1.17,6.23-16.42-18.1-15.64-2.64-2.11s-1.41,4.61-3.1,10.36c-.08.27-.16.53-.24.82-.1.32-.21.63-.29.93-.26.86-.53,1.73-.78,2.61-.19.67-.38,1.31-.55,2.02-.19.71-.37,1.39-.56,2.1-1.76,7-2.98,14.33-2.91,15.21Z"/>
            <path class="cls-4" d="M140.17,309.45c2.92,14.2,12.92,21.25,17.61,23.82l6.23-16.42-18.1-15.64-2.64-2.11s-1.41,4.61-3.1,10.36Z"/>
          </g>
          <g>
            <g>
              <path class="cls-10" d="M169.49,291.62c1.59,7.04,7.89,11.62,14.07,10.22,6.18-1.4,9.9-8.24,8.3-15.28-1.59-7.04-7.89-11.62-14.07-10.22-6.18,1.4-9.9,8.24-8.3,15.28Z"/>
              <path class="cls-11" d="M165.96,292.88c1.77,7.83,8.78,12.92,15.65,11.37,6.87-1.55,11.01-9.16,9.24-17-1.77-7.83-8.78-12.92-15.65-11.37-6.87,1.55-11.01,9.16-9.24,17Z"/>
            </g>
            <path class="cls-13" d="M186.18,282.86c8.4,29.66-8.41,38.04-14.81,39.84-5.81,1.64-25.79,6.48-37.21-22.15-11.42-28.63-.29-41.91,12.79-46.36,13.08-4.45,30.82-.99,39.22,28.67Z"/>
            <g>
              <path class="cls-4" d="M175.86,279.13c-.72.1-1.4.07-2.13.1-.82.03-1.46.14-2.19-.31-.39-.24-.53-.9-.34-1.3.46-.93,1.45-1.21,2.43-1.29,1.06-.08,1.91.13,2.78.74.85.59.38,1.93-.57,2.06Z"/>
              <path class="cls-4" d="M156.27,285.98c.7-.19,1.32-.48,2-.74.76-.29,1.4-.45,1.89-1.14.26-.37.14-1.03-.2-1.32-.79-.68-1.81-.55-2.74-.24-1.01.34-1.7.86-2.27,1.76-.55.87.4,1.93,1.33,1.68Z"/>
              <g>
                <g>
                  <path class="cls-4" d="M162.29,291.26c-.04-.07-.13.14-.1.22.64,2,1.03,4.4-.6,5.59-.05.04-.02.14.05.11,2.14-.95,1.58-4.13.66-5.92Z"/>
                  <path class="cls-4" d="M159.89,289.67c-3.32.68-1.72,7.26,1.36,6.63,3.02-.62,1.42-7.2-1.36-6.63Z"/>
                </g>
                <path class="cls-4" d="M158.68,290.33c-.48.51-.89,1.31-1.56,1.54-.78.27-1.56-.27-2.24-.8-.07-.06-.11.02-.09.1.29,1.27,1.09,2.44,2.49,2.3,1.28-.13,1.89-1.46,1.9-2.8,0-.25-.29-.55-.48-.34Z"/>
              </g>
              <g>
                <g>
                  <path class="cls-4" d="M174,287.65c0-.08.18.06.2.14.42,2.06,1.24,4.35,3.24,4.59.06,0,.08.11,0,.12-2.33.21-3.39-2.84-3.45-4.85Z"/>
                  <path class="cls-4" d="M175.32,285.09c3.23-1.02,5.03,5.51,2.04,6.46-2.94.93-4.75-5.6-2.04-6.46Z"/>
                </g>
                <path class="cls-4" d="M176.8,285.14c.61.2,1.3.69,1.92.56.73-.15,1.06-1,1.33-1.81.03-.08.09-.04.12.04.38,1.24.33,2.65-.81,3.22-1.03.52-2.13-.33-2.77-1.49-.12-.21-.04-.61.21-.53Z"/>
              </g>
              <path class="cls-4" d="M166.92,307.71c.59.39,1.21.95,1.97.87.73-.08,1.51-.57,2.11-.95.06-.04.14.02.11.09-.38.9-1.41,1.61-2.4,1.63-.96.02-1.58-.7-1.98-1.51-.06-.11.09-.19.18-.13Z"/>
              <path class="cls-4" d="M173.63,297.54s1.2,2.93,1.56,4.36c.03.13-4.91,2.54-8.1-.4-.13-.12,0-.31.16-.25,2.24.9,4.42.73,6.67.19,0-.42-2.22-4.95-1.99-5.02.77-.27,2.44-.13,3.44-.09-2.31-6.17-5.6-11.93-7.81-18.11-.08-.22.23-.37.35-.19,3.87,5.79,6.69,12.83,9.24,19.15.33.78-2.9.46-3.53.36Z"/>
              <g>
                <path class="cls-4" d="M173.93,302.14s-.84,2.21-2.5,3.4c-.61.44-1.32.74-2.15.76-1.7.03-2.15-1.41-2.22-2.73-.05-1.09.17-2.1.17-2.1,0,0,2.93,1.51,6.7.69Z"/>
                <path class="cls-3" d="M171.42,305.53c-.61.44-1.32.74-2.15.76-1.7.03-2.15-1.41-2.22-2.73,1.75-.31,3.75.37,4.37,1.98Z"/>
              </g>
            </g>
            <g>
              <path class="cls-4" d="M135.59,299.56c5.74.37,6.4-12.76,6.4-12.76,0,0,24.01-5.59,24.86-25.47,0,0,4.93,12.34,17.98,17.26,0,0-2.17-21.6-19.59-24.76,0,0-21.78-6.46-32.73,11.18-10.95,17.64-.78,34.3,3.08,34.55Z"/>
              <path class="cls-4" d="M166.85,259.87c.51,2.99.26,6.11-.53,9.08-.79,2.97-2.15,5.83-4.09,8.26-.44.64-1.03,1.16-1.54,1.74l-.79.85c-.29.26-.59.5-.88.75-.6.48-1.18.99-1.8,1.45-.65.42-1.3.82-1.96,1.22-.33.2-.65.41-.99.59l-1.04.48-2.08.95c-1.44.5-2.9.92-4.36,1.32,1.36-.69,2.76-1.24,4.08-1.93l1.95-1.1.97-.55c.31-.2.6-.43.9-.65.6-.44,1.2-.87,1.8-1.29.57-.46,1.1-.98,1.66-1.46l.83-.73.74-.82c.47-.56,1.03-1.05,1.43-1.66,1.86-2.27,3.17-4.94,4.17-7.71.49-1.39.85-2.84,1.1-4.31.28-1.47.41-2.96.44-4.47Z"/>
            </g>
            <g>
              <path class="cls-13" d="M139.87,299.25s-8.42-8.18-12.25-5c-3.83,3.18,3.76,15.92,9.15,16.83,5.39.91,6.33-4.07,6.33-4.07l-3.23-7.76Z"/>
              <path class="cls-4" d="M129.88,297.85c-.08,0-.08.12,0,.14,3.8.75,6.29,3.67,8.24,6.81-1.3-1.1-2.87-1.55-4.38.04-.08.08.04.21.13.17,1.39-.59,2.48-.54,3.68.43.85.69,1.52,1.63,2.2,2.48.23.28.76,0,.57-.33-.01-.02-.03-.05-.04-.08-.77-4.52-5.48-10.14-10.4-9.67Z"/>
            </g>
            <g>
              <path class="cls-11" d="M134.11,295.09s-5.46-14.55-3.57-24.05c2.1-10.58,15.21-22.65,30.2-18.13,0,0-17.83,2.68-24.14,17.02-2.9,6.6,2.58,24.07,2.58,24.07l-5.08,1.09Z"/>
              <path class="cls-11" d="M150.27,298.41c2.35,7.55-1.11,15.33-7.73,17.4-6.62,2.06-13.89-2.38-16.24-9.93-2.35-7.55,1.11-15.33,7.73-17.4,6.62-2.06,13.89,2.38,16.24,9.93Z"/>
              <path class="cls-10" d="M146.65,299.07c2.11,6.78-1,13.78-6.95,15.64-5.95,1.85-12.49-2.14-14.6-8.92-2.11-6.78,1-13.78,6.95-15.64,5.95-1.85,12.49,2.14,14.6,8.92Z"/>
            </g>
          </g>
        </g>
        <g>
          <path class="cls-15" d="M157.71,333.37l-5.5,13.88-17.29-17.45-4.85,5.65s16.96,27.78,17.07,26.52l5.66-11.97,8.28,8.27-.76-20.86-2.59-4.04Z"/>
          <path class="cls-4" d="M161.26,347.93c-.24-3.44-.39-6.91-.79-10.33-.01-.12-.21-.18-.23-.03-.67,3.33.32,16.47.32,19.63-.01-.01-.03-.02-.04-.04-.35-.36-7.67-7.28-7.74-7.17-1.23,1.9-5.38,10.62-5.66,11.41-2.68-4.41-14.06-21.8-17.24-25.97-.09-.12-.28-.02-.21.12,2.37,4.66,17.08,27.61,17.29,27.55.14.11,5.3-10.63,5.91-12.65,1.24,1.51,8.64,9.32,8.66,8.81.15-3.45-.03-7.88-.27-11.32Z"/>
        </g>
      </g>
      <g>
        <g>
          <path class="cls-8" d="M257.79,240.89c-1.79,17.14-17.15,29.59-34.29,27.8-6.93-.72-13.09-3.67-17.86-8.06l-15.62,2.29,7.81-13.5c-1.9-4.61-2.69-9.75-2.14-15.03,1.79-17.14,17.15-29.59,34.3-27.8,17.14,1.79,29.59,17.15,27.8,34.29Z"/>
          <path class="cls-4" d="M257.79,240.89c-.65,5.7-2.74,11.28-6.3,15.82-.82,1.19-1.87,2.18-2.83,3.26-1.08.94-2.1,1.98-3.29,2.79-2.28,1.76-4.85,3.14-7.53,4.19-2.67,1.12-5.54,1.66-8.4,2-1.44.08-2.89.21-4.34.08-1.45-.03-2.89-.19-4.32-.45-5.71-1.03-11.12-3.71-15.44-7.62l.37.11-15.6,2.39-1.13.17.57-1,7.77-13.53-.04.53c-3.78-8.91-2.93-19.52,1.92-27.82,2.42-4.16,5.79-7.74,9.78-10.41,3.98-2.68,8.6-4.36,13.32-5,4.73-.63,9.6-.2,14.11,1.3,4.51,1.52,8.65,4.07,12.04,7.38,6.89,6.55,10.36,16.38,9.34,25.78ZM257.79,240.89c.95-9.41-2.58-19.18-9.48-25.64-3.42-3.23-7.57-5.68-12.04-7.1-4.48-1.4-9.27-1.74-13.88-1.04-4.61.71-9.07,2.42-12.89,5.09-3.81,2.67-7.02,6.17-9.34,10.19-2.37,4.01-3.59,8.6-3.96,13.21-.29,4.62.46,9.3,2.2,13.6l.11.28-.15.26-7.86,13.47-.56-.82,15.63-2.19.22-.03.15.14c4.13,3.88,9.36,6.59,14.95,7.7,1.4.28,2.81.46,4.23.51,1.42.15,2.85.04,4.27,0,2.83-.29,5.68-.77,8.34-1.84,2.67-1,5.25-2.31,7.53-4.06,1.2-.8,2.21-1.82,3.3-2.75.96-1.06,2.02-2.05,2.84-3.22,3.58-4.5,5.7-10.06,6.39-15.75Z"/>
        </g>
        <g>
          <circle class="cls-4" cx="240.36" cy="238.59" r="3.78"/>
          <circle class="cls-4" cx="226.82" cy="238.59" r="3.78"/>
          <circle class="cls-4" cx="213.28" cy="238.59" r="3.78"/>
        </g>
      </g>
      <g>
        <g>
          <path class="cls-8" d="M568.26,240.89c-1.79,17.14-17.15,29.59-34.3,27.8-6.93-.72-13.09-3.67-17.86-8.06l-15.62,2.29,7.81-13.5c-1.9-4.61-2.69-9.75-2.14-15.03,1.79-17.14,17.15-29.59,34.3-27.8,17.14,1.79,29.59,17.15,27.8,34.29Z"/>
          <path class="cls-4" d="M568.26,240.89c-.65,5.7-2.74,11.28-6.3,15.82-.82,1.19-1.87,2.18-2.83,3.26-1.08.94-2.1,1.98-3.29,2.79-2.28,1.76-4.85,3.14-7.53,4.19-2.67,1.12-5.54,1.66-8.4,2-1.44.08-2.89.21-4.34.08-1.45-.03-2.89-.19-4.32-.45-5.71-1.03-11.12-3.71-15.44-7.62l.37.11-15.6,2.39-1.13.17.57-1,7.77-13.53-.04.53c-3.78-8.91-2.93-19.52,1.92-27.82,2.42-4.16,5.79-7.74,9.78-10.41,3.98-2.68,8.6-4.36,13.32-5,4.73-.63,9.6-.2,14.11,1.3,4.51,1.52,8.65,4.07,12.04,7.38,6.89,6.55,10.36,16.38,9.34,25.78ZM568.26,240.89c.95-9.41-2.58-19.18-9.48-25.64-3.42-3.23-7.57-5.68-12.04-7.1-4.48-1.4-9.27-1.74-13.88-1.04-4.61.71-9.07,2.42-12.89,5.09-3.81,2.67-7.02,6.17-9.34,10.19-2.37,4.01-3.59,8.6-3.96,13.21-.29,4.62.46,9.3,2.2,13.6l.11.28-.15.26-7.86,13.47-.56-.82,15.63-2.19.22-.03.15.14c4.13,3.88,9.36,6.59,14.95,7.7,1.4.28,2.81.46,4.23.51,1.42.15,2.85.04,4.27,0,2.83-.29,5.68-.77,8.34-1.84,2.67-1,5.25-2.31,7.53-4.06,1.2-.8,2.21-1.82,3.3-2.75.96-1.06,2.02-2.05,2.84-3.22,3.58-4.5,5.7-10.06,6.39-15.75Z"/>
        </g>
        <g>
          <circle class="cls-4" cx="550.84" cy="238.59" r="3.78"/>
          <circle class="cls-4" cx="537.3" cy="238.59" r="3.78"/>
          <path class="cls-4" d="M527.54,238.59c0,2.09-1.69,3.78-3.78,3.78s-3.78-1.69-3.78-3.78,1.69-3.78,3.78-3.78,3.78,1.69,3.78,3.78Z"/>
        </g>
      </g>
      <g>
        <g>
          <g>
            <rect class="cls-10" x="199.42" y="462.2" width="6.69" height="4.37"/>
            <rect class="cls-10" x="208.1" y="461.91" width="6.69" height="4.37"/>
            <rect class="cls-10" x="216.77" y="461.63" width="6.69" height="4.37"/>
            <rect class="cls-10" x="225.45" y="461.34" width="6.69" height="4.37"/>
            <rect class="cls-10" x="234.13" y="461.05" width="6.69" height="4.37"/>
            <rect class="cls-10" x="242.8" y="460.76" width="6.69" height="4.37"/>
            <rect class="cls-10" x="251.48" y="460.47" width="6.69" height="4.37"/>
            <rect class="cls-10" x="260.16" y="460.18" width="6.69" height="4.37"/>
            <rect class="cls-10" x="268.83" y="459.89" width="6.69" height="4.37"/>
          </g>
          <polygon class="cls-7" points="277.16 469.08 197.78 469.08 197.78 463.77 277.16 461.55 277.16 469.08"/>
        </g>
        <g>
          <g>
            <polygon class="cls-10" points="354.64 448.12 223.59 448.12 244.43 350.56 375.48 350.56 354.64 448.12"/>
            <polygon class="cls-7" points="359.48 448.12 228.44 448.12 249.28 350.56 380.32 350.56 359.48 448.12"/>
            <path class="cls-4" d="M315.71,393.69c-.71,4.47-4.91,8.1-9.39,8.1s-7.53-3.63-6.82-8.1c.71-4.47,4.91-8.1,9.39-8.1s7.53,3.63,6.82,8.1Z"/>
          </g>
          <g>
            <polygon class="cls-10" points="322.42 473.6 257.97 473.6 257.97 468.6 322.42 466.51 322.42 473.6"/>
            <polygon class="cls-10" points="339.94 473.59 305.34 473.59 284.5 418.93 319.1 418.93 339.94 473.59"/>
            <polygon class="cls-4" points="345.64 473.59 311.04 473.59 290.2 418.93 324.8 418.93 345.64 473.59"/>
          </g>
        </g>
        <g>
          <path class="cls-7" d="M195.33,474.93h-66.45c-5.67,0,2.53-16.15,23.23-22.34,20.7-6.19,49.75,16.28,43.22,22.34Z"/>
          <g>
            <path class="cls-4" d="M169.26,474.93c.25-7.27,4.37-14.91,11.34-17.67-1.08.77-2.21,1.61-3.2,2.5-4.26,4.03-6.76,9.52-8.15,15.17h0Z"/>
            <path class="cls-4" d="M177.13,459.57c6.56,2.17,17.49,7.65,18.2,15.36-2.06-7.14-12.13-11.84-18.2-15.36h0Z"/>
          </g>
        </g>
      </g>
      <g>
        <g>
          <g>
            <rect class="cls-10" x="506.28" y="462.2" width="6.69" height="4.37"/>
            <rect class="cls-10" x="514.96" y="461.91" width="6.69" height="4.37"/>
            <rect class="cls-10" x="523.63" y="461.63" width="6.69" height="4.37"/>
            <rect class="cls-10" x="532.31" y="461.34" width="6.69" height="4.37"/>
            <rect class="cls-10" x="540.99" y="461.05" width="6.69" height="4.37"/>
            <rect class="cls-10" x="549.66" y="460.76" width="6.69" height="4.37"/>
            <rect class="cls-10" x="558.34" y="460.47" width="6.69" height="4.37"/>
            <rect class="cls-10" x="567.02" y="460.18" width="6.69" height="4.37"/>
            <rect class="cls-10" x="575.69" y="459.89" width="6.69" height="4.37"/>
          </g>
          <polygon class="cls-7" points="584.02 469.08 504.64 469.08 504.64 463.77 584.02 461.55 584.02 469.08"/>
        </g>
        <g>
          <g>
            <polygon class="cls-10" points="661.5 448.12 530.46 448.12 551.3 350.56 682.34 350.56 661.5 448.12"/>
            <polygon class="cls-7" points="666.35 448.12 535.3 448.12 556.14 350.56 687.18 350.56 666.35 448.12"/>
            <path class="cls-4" d="M622.57,393.69c-.71,4.47-4.91,8.1-9.39,8.1s-7.53-3.63-6.82-8.1c.71-4.47,4.91-8.1,9.39-8.1s7.53,3.63,6.82,8.1Z"/>
          </g>
          <g>
            <polygon class="cls-10" points="629.28 473.6 564.83 473.6 564.83 468.6 629.28 466.51 629.28 473.6"/>
            <polygon class="cls-10" points="646.81 473.59 612.2 473.59 591.36 418.93 625.97 418.93 646.81 473.59"/>
            <polygon class="cls-4" points="652.5 473.59 617.9 473.59 597.06 418.93 631.66 418.93 652.5 473.59"/>
          </g>
        </g>
        <g>
          <path class="cls-7" d="M502.19,474.93h-66.45c-5.67,0,2.53-16.15,23.23-22.34,20.7-6.19,49.75,16.28,43.22,22.34Z"/>
          <g>
            <path class="cls-4" d="M476.12,474.93c.24-7.27,4.37-14.91,11.34-17.67-1.08.77-2.21,1.61-3.2,2.5-4.26,4.03-6.76,9.52-8.15,15.17h0Z"/>
            <path class="cls-4" d="M483.99,459.57c6.56,2.17,17.49,7.65,18.2,15.36-2.06-7.14-12.13-11.84-18.2-15.36h0Z"/>
          </g>
        </g>
      </g>
    </g>
  </g>
</svg>